<svg width="403" height="74" xmlns="http://www.w3.org/2000/svg">

 <g>
  <title>background</title>
  <rect fill="none" id="canvas_background" height="76" width="405" y="-1" x="-1"/>
 </g>
 <g>
  <title>Layer 1</title>
  <g id="svg_1">
   <path fill="#000000" fill-rule="evenodd" stroke-width="1px" d="m23.42479,38.48453c5.34721,-7.56743 3.67273,-18.67903 -0.89786,-21.88477c-8.06312,-5.85628 -16.87626,6.36629 -12.83714,18.52696c4.03111,12.51732 14.12215,21.26775 27.85974,23.76992c29.80334,5.26556 88.75392,-27.17806 126.13977,-37.10584c27.77255,-7.37498 44.73773,3.70697 53.89194,15.98065c-18.81464,-13.32713 -35.96277,-8.69195 -53.61063,-5.4198c-40.49223,7.50779 -82.37617,39.38407 -126.75807,34.37011c-20.7208,-3.09549 -35.23915,-23.67115 -34.04528,-39.80535c0.10605,-1.43376 0.33619,-2.83249 0.69714,-4.1808c2.72756,-9.56168 7.51998,-13.48331 11.76552,-14.64645c11.54058,-3.1619 22.97279,17.87191 7.79487,30.39537z" id="path2383"/>
   <path fill="#000000" fill-rule="evenodd" stroke-width="1px" d="m380.11939,35.19992c-5.67127,7.63101 -3.89527,18.83631 0.95227,22.06903c8.55175,5.90563 17.89917,-6.41998 13.61523,-18.68297c-4.27527,-12.62275 -14.97809,-21.44686 -29.54831,-23.96998c-31.60989,-5.31 -94.13333,27.40681 -133.78531,37.41824c-29.45575,7.43704 -47.44922,-3.73822 -57.1582,-16.11526c19.95495,13.43937 38.14233,8.76516 56.8598,5.46545c42.94666,-7.571 87.3692,-39.71573 134.4411,-34.65955c21.97669,3.12156 37.375,23.8705 36.10883,40.14055c-0.11249,1.44594 -0.35663,2.85634 -0.73944,4.21602c-2.89289,9.6422 -7.97577,13.59676 -12.47864,14.76979c-12.24005,3.18851 -24.36514,-18.0224 -8.26734,-30.65132l0.00001,0z" id="path2479"/>
  </g>
 </g>
</svg>