<?xml version="1.0" encoding="UTF-8" standalone="no"?>
<svg
   xmlns:dc="http://purl.org/dc/elements/1.1/"
   xmlns:cc="http://creativecommons.org/ns#"
   xmlns:rdf="http://www.w3.org/1999/02/22-rdf-syntax-ns#"
   xmlns:svg="http://www.w3.org/2000/svg"
   xmlns="http://www.w3.org/2000/svg"
   xmlns:sodipodi="http://sodipodi.sourceforge.net/DTD/sodipodi-0.dtd"
   xmlns:inkscape="http://www.inkscape.org/namespaces/inkscape"
   version="1.1"
   width="778.33099"
   height="103.326"
   viewBox="0 0 778.33 103.33"
   enable-background="new 0 0 675.33 103.33"
   xml:space="preserve"
   id="svg4212"
   inkscape:version="0.91 r13725"
   sodipodi:docname="samsung-logo-blue-question.svg"><metadata
     id="metadata4232"><rdf:RDF><cc:Work
         rdf:about=""><dc:format>image/svg+xml</dc:format><dc:type
           rdf:resource="http://purl.org/dc/dcmitype/StillImage" /><dc:title></dc:title></cc:Work></rdf:RDF></metadata><defs
     id="defs4230" /><sodipodi:namedview
     pagecolor="#ffffff"
     bordercolor="#666666"
     borderopacity="1"
     objecttolerance="10"
     gridtolerance="10"
     guidetolerance="10"
     inkscape:pageopacity="0"
     inkscape:pageshadow="2"
     inkscape:window-width="1865"
     inkscape:window-height="1056"
     id="namedview4228"
     showgrid="false"
     inkscape:zoom="2.0138273"
     inkscape:cx="559.42434"
     inkscape:cy="51.662998"
     inkscape:window-x="55"
     inkscape:window-y="24"
     inkscape:window-maximized="1"
     inkscape:current-layer="svg4212" /><path
     d="m 559.013,78.826 -1.31,-75.74604 23.902,0 0,95.52634 -34.365,0 -23.849,-78.3852 -0.533,0 1.334,78.3852 -23.713,0 0,-95.52634 35.812,0 22.201,75.74604 0.521,0 z"
     id="path4214"
     inkscape:connector-curvature="0"
     style="fill:#1428a0;fill-opacity:1;stroke-width:0.2;stroke-linejoin:round" /><path
     d="m 124.723,11.9886 -13.208,87.6082 -26.0793,0 17.8823,-96.5105 42.959,0 17.783,96.5105 -25.921,0 -12.876,-87.6082 -0.54,0 z"
     id="path4216"
     inkscape:connector-curvature="0"
     style="fill:#1428a0;fill-opacity:1;stroke-width:0.2;stroke-linejoin:round" /><path
     d="m 237.228,76.8773 11.928,-73.79466 39.347,0 2.141,96.51046 -24.157,0 -0.623,-86.7895 -0.522,0.0239 -16.121,86.7656 -24.472,0 -16.138,-86.7895 -0.54,0 -0.611,86.7895 -24.127,0 2.135,-96.51046 39.359,0 11.874,73.79466 0.527,0 z"
     id="path4218"
     inkscape:connector-curvature="0"
     style="fill:#1428a0;fill-opacity:1;stroke-width:0.2;stroke-linejoin:round" /><path
     d="m 44.8154,72.3475 c 0.949,2.3311 0.6346,5.3382 0.1898,7.1592 -0.7889,3.1494 -2.9596,6.4351 -9.3948,6.4351 -6.0261,0 -9.7093,-3.4519 -9.7093,-8.7068 l -0.0178,-9.3714 -25.8833,0 0,7.4673 c 0,21.5183 16.9452,27.9951 35.0647,27.9951 17.4908,0 31.8262,-5.9311 34.1334,-22.0283 1.1803,-8.351 0.3085,-13.8193 -0.0949,-15.8598 -4.0925,-20.219 -40.711,-26.2036 -43.4453,-37.5376 -0.4626,-1.9751 -0.3558,-3.9383 -0.1126,-5.0418 0.6998,-3.1018 2.7935,-6.4826 8.8254,-6.4826 5.6642,0 8.9678,3.4875 8.9678,8.7365 l 0,5.9549 24.0921,0 0,-6.7496 C 67.4306,3.28601 48.5461,1.2207e-4 34.8808,1.2207e-4 17.7222,1.2207e-4 3.71881,5.68787 1.13879,21.441 0.444916,25.6937 0.343994,29.5551 1.38196,34.4301 5.5575,54.151 39.8451,59.8685 44.8154,72.3475 Z"
     id="path4220"
     inkscape:connector-curvature="0"
     style="fill:#1428a0;fill-opacity:1;stroke-width:0.2;stroke-linejoin:round" /><path
     d="m 358.613,72.1569 c 0.902,2.3127 0.629,5.2783 0.184,7.0935 -0.777,3.1792 -2.948,6.3581 -9.318,6.3581 -5.99,0 -9.602,-3.3869 -9.602,-8.612 l -0.012,-9.2823 -25.634,0 -0.018,7.3785 c 0,21.3283 16.785,27.7103 34.75,27.7103 17.283,0 31.494,-5.8422 33.76,-21.7912 1.174,-8.2561 0.308,-13.6711 -0.095,-15.7175 -4.045,-19.9995 -40.308,-25.9365 -42.983,-37.1523 -0.474,-1.9334 -0.344,-3.8789 -0.124,-4.9583 0.688,-3.0842 2.752,-6.4353 8.73,-6.4353 5.605,0 8.879,3.4519 8.879,8.6121 l 0,5.9133 23.849,0 0,-6.6609 c 0,-20.81786 -18.706,-24.062241 -32.206,-24.062241 -16.998,0 -30.877,5.557131 -33.409,21.191941 -0.706,4.2226 -0.813,8.0483 0.213,12.8645 4.152,19.5429 38.101,25.2072 43.036,37.5498 z"
     id="path4222"
     inkscape:connector-curvature="0"
     style="fill:#1428a0;fill-opacity:1;stroke-width:0.2;stroke-linejoin:round" /><path
     d="m 439.616,85.0878 c 6.702,0 8.784,-4.5552 9.264,-6.9571 0.208,-1.0442 0.243,-2.4438 0.232,-3.6894 l 0,-71.37453 24.471,0 0,69.16823 c 0.018,1.7851 -0.166,5.4211 -0.267,6.376 -1.684,17.9948 -15.948,23.813 -33.7,23.813 -17.74,0 -31.998,-5.8182 -33.665,-23.813 -0.077,-0.9549 -0.273,-4.5909 -0.231,-6.376 l 0,-69.16823 24.4,0 0,71.37453 c -0.018,1.2456 0.03,2.6452 0.231,3.6894 0.487,2.4019 2.569,6.9571 9.265,6.9571 z"
     id="path4224"
     inkscape:connector-curvature="0"
     style="fill:#1428a0;fill-opacity:1;stroke-width:0.2;stroke-linejoin:round" /><path
     d="m 640.972,84.1029 c 6.975,0 9.418,-4.4009 9.869,-6.9746 0.184,-1.0972 0.255,-2.4497 0.219,-3.6773 l 0,-13.9916 -9.881,0 0,-14.116 34.152,0 0,25.895 c -0.012,1.8093 -0.036,3.1494 -0.303,6.3704 -1.607,17.5617 -16.874,23.8482 -33.961,23.8482 -17.106,0 -32.355,-6.2865 -33.938,-23.8482 -0.279,-3.221 -0.326,-4.5611 -0.338,-6.3704 l 0.012,-40.604 c 0,-1.738 0.207,-4.7688 0.409,-6.3167 2.141,-18.10786 16.749,-23.854931 33.866,-23.854931 17.1,0 32.111,5.699711 33.891,23.854931 0.278,3.0069 0.178,6.3167 0.189,6.3167 l 0,3.2085 -24.317,0 0,-5.4211 c 0,0 -0.024,-2.2891 -0.314,-3.6297 -0.439,-2.1233 -2.266,-7.0283 -9.65,-7.0283 -6.999,0 -9.075,4.644 -9.609,7.0283 -0.278,1.2217 -0.391,2.9419 -0.391,4.5195 l 0,44.1394 c -0.012,1.2276 0.047,2.5801 0.219,3.6773 0.463,2.5737 2.895,6.9746 9.876,6.9746 z"
     id="path4226"
     inkscape:connector-curvature="0"
     style="fill:#1428a0;fill-opacity:1;stroke-width:0.2;stroke-linejoin:round" /><g
     style="font-style:normal;font-weight:normal;font-size:40.00154877px;line-height:125%;font-family:sans-serif;letter-spacing:0px;word-spacing:0px;fill:#000000;fill-opacity:1;stroke:none;stroke-width:1px;stroke-linecap:butt;stroke-linejoin:miter;stroke-opacity:1"
     id="text4234"><path
       d="m 713.87286,71.386005 q -0.40284,-5.102736 -0.40284,-7.116975 0,-7.92267 2.95421,-13.025406 2.95422,-5.23702 10.74261,-11.414017 5.50558,-4.297041 7.38554,-6.982692 1.87995,-2.819933 1.87995,-6.445562 0,-10.608321 -13.02541,-10.608321 -9.66834,0 -21.21664,6.714127 L 695.879,9.4817524 q 6.04272,-4.1627588 13.56254,-6.3112795 7.51982,-2.28280329 15.30821,-2.28280329 13.42825,0 20.81379,6.57984469 7.51983,6.5798447 7.51983,18.3967087 0,6.714127 -2.95422,11.548299 -2.95422,4.834171 -10.7426,10.742603 -6.71413,5.237019 -8.99693,8.594083 -2.28281,3.222781 -2.28281,7.92267 0,2.014238 0.40285,6.714127 l -14.6368,0 z m 7.38554,30.213575 q -4.83417,0 -7.51982,-2.551371 -2.68565,-2.68565 -2.68565,-7.251257 0,-4.699889 2.68565,-7.251257 2.68565,-2.685651 7.51982,-2.685651 4.83418,0 7.51983,2.685651 2.68565,2.551368 2.68565,7.116975 0,4.699889 -2.68565,7.385539 -2.68565,2.551371 -7.51983,2.551371 z"
       style="font-style:normal;font-variant:normal;font-weight:bold;font-stretch:normal;font-size:137.50532532px;font-family:SamsungOne;-inkscape-font-specification:'SamsungOne Bold'"
       id="path4290" /></g></svg>