<?xml version="1.0" encoding="utf-8"?>
<!DOCTYPE svg PUBLIC "-//W3C//DTD SVG 1.1//EN" "http://www.w3.org/Graphics/SVG/1.1/DTD/svg11.dtd">
<svg xmlns="http://www.w3.org/2000/svg" xmlns:xlink="http://www.w3.org/1999/xlink" version="1.1" baseProfile="full" width="675.331" height="103.326" viewBox="0 0 675.33 103.33" enable-background="new 0 0 675.33 103.33" xml:space="preserve">
	<path fill="#1428a0" fill-opacity="1" stroke-width="0.2" stroke-linejoin="round" d="M 559.013,78.826L 557.703,3.07996L 581.605,3.07996L 581.605,98.6063L 547.24,98.6063L 523.391,20.2211L 522.858,20.2211L 524.192,98.6063L 500.479,98.6063L 500.479,3.07996L 536.291,3.07996L 558.492,78.826L 559.013,78.826 Z "/>
	<path fill="#1428a0" fill-opacity="1" stroke-width="0.2" stroke-linejoin="round" d="M 124.723,11.9886L 111.515,99.5968L 85.4357,99.5968L 103.318,3.0863L 146.277,3.0863L 164.06,99.5968L 138.139,99.5968L 125.263,11.9886L 124.723,11.9886 Z "/>
	<path fill="#1428a0" fill-opacity="1" stroke-width="0.2" stroke-linejoin="round" d="M 237.228,76.8773L 249.156,3.08264L 288.503,3.08264L 290.644,99.5931L 266.487,99.5931L 265.864,12.8036L 265.342,12.8275L 249.221,99.5931L 224.749,99.5931L 208.611,12.8036L 208.071,12.8036L 207.46,99.5931L 183.333,99.5931L 185.468,3.08264L 224.827,3.08264L 236.701,76.8773L 237.228,76.8773 Z "/>
	<path fill="#1428a0" fill-opacity="1" stroke-width="0.2" stroke-linejoin="round" d="M 44.8154,72.3475C 45.7644,74.6786 45.45,77.6857 45.0052,79.5067C 44.2163,82.6561 42.0456,85.9418 35.6104,85.9418C 29.5843,85.9418 25.9011,82.4899 25.9011,77.235L 25.8833,67.8636L 0,67.8636L 0,75.3309C 0,96.8492 16.9452,103.326 35.0647,103.326C 52.5555,103.326 66.8909,97.3949 69.1981,81.2977C 70.3784,72.9467 69.5066,67.4784 69.1032,65.4379C 65.0107,45.2189 28.3922,39.2343 25.6579,27.9003C 25.1953,25.9252 25.3021,23.962 25.5453,22.8585C 26.2451,19.7567 28.3388,16.3759 34.3707,16.3759C 40.0349,16.3759 43.3385,19.8634 43.3385,25.1124L 43.3385,31.0673L 67.4306,31.0673L 67.4306,24.3177C 67.4306,3.28601 48.5461,0.00012207 34.8808,0.00012207C 17.7222,0.00012207 3.71881,5.68787 1.13879,21.441C 0.444916,25.6937 0.343994,29.5551 1.38196,34.4301C 5.5575,54.151 39.8451,59.8685 44.8154,72.3475 Z "/>
	<path fill="#1428a0" fill-opacity="1" stroke-width="0.2" stroke-linejoin="round" d="M 358.613,72.1569C 359.515,74.4696 359.242,77.4352 358.797,79.2504C 358.02,82.4296 355.849,85.6085 349.479,85.6085C 343.489,85.6085 339.877,82.2216 339.877,76.9965L 339.865,67.7142L 314.231,67.7142L 314.213,75.0927C 314.213,96.421 330.998,102.803 348.963,102.803C 366.246,102.803 380.457,96.9608 382.723,81.0118C 383.897,72.7557 383.031,67.3407 382.628,65.2943C 378.583,45.2948 342.32,39.3578 339.645,28.142C 339.171,26.2086 339.301,24.2631 339.521,23.1837C 340.209,20.0995 342.273,16.7484 348.251,16.7484C 353.856,16.7484 357.13,20.2003 357.13,25.3605L 357.13,31.2738L 380.979,31.2738L 380.979,24.6129C 380.979,3.79504 362.273,0.550659 348.773,0.550659C 331.775,0.550659 317.896,6.10779 315.364,21.7426C 314.658,25.9652 314.551,29.7909 315.577,34.6071C 319.729,54.15 353.678,59.8143 358.613,72.1569 Z "/>
	<path fill="#1428a0" fill-opacity="1" stroke-width="0.2" stroke-linejoin="round" d="M 439.616,85.0878C 446.318,85.0878 448.4,80.5326 448.88,78.1307C 449.088,77.0865 449.123,75.6869 449.112,74.4413L 449.112,3.06677L 473.583,3.06677L 473.583,72.235C 473.601,74.0201 473.417,77.6561 473.316,78.611C 471.632,96.6058 457.368,102.424 439.616,102.424C 421.876,102.424 407.618,96.6058 405.951,78.611C 405.874,77.6561 405.678,74.0201 405.72,72.235L 405.72,3.06677L 430.12,3.06677L 430.12,74.4413C 430.102,75.6869 430.15,77.0865 430.351,78.1307C 430.838,80.5326 432.92,85.0878 439.616,85.0878 Z "/>
	<path fill="#1428a0" fill-opacity="1" stroke-width="0.2" stroke-linejoin="round" d="M 640.972,84.1029C 647.947,84.1029 650.39,79.702 650.841,77.1283C 651.025,76.0311 651.096,74.6786 651.06,73.451L 651.06,59.4594L 641.179,59.4594L 641.179,45.3434L 675.331,45.3434L 675.331,71.2384C 675.319,73.0477 675.295,74.3878 675.028,77.6088C 673.421,95.1705 658.154,101.457 641.067,101.457C 623.961,101.457 608.712,95.1705 607.129,77.6088C 606.85,74.3878 606.803,73.0477 606.791,71.2384L 606.803,30.6344C 606.803,28.8964 607.01,25.8656 607.212,24.3177C 609.353,6.20984 623.961,0.462769 641.078,0.462769C 658.178,0.462769 673.189,6.16248 674.969,24.3177C 675.247,27.3246 675.147,30.6344 675.158,30.6344L 675.158,33.8429L 650.841,33.8429L 650.841,28.4218C 650.841,28.4218 650.817,26.1327 650.527,24.7921C 650.088,22.6688 648.261,17.7638 640.877,17.7638C 633.878,17.7638 631.802,22.4078 631.268,24.7921C 630.99,26.0138 630.877,27.734 630.877,29.3116L 630.877,73.451C 630.865,74.6786 630.924,76.0311 631.096,77.1283C 631.559,79.702 633.991,84.1029 640.972,84.1029 Z "/>
</svg>
